<svg xmlns="http://www.w3.org/2000/svg" width="12" height="12" viewBox="0 0 12 12" fill="none">
  <path fill-rule="evenodd" clip-rule="evenodd" d="M8.103 5.052C8.103 7.013 6.513 8.603 4.552 8.603C2.59 8.603 1 7.013 1 5.052C1 3.09 2.59 1.5 4.552 1.5C6.513 1.5 8.103 3.09 8.103 5.052ZM7.397 8.605C6.617 9.23 5.629 9.603 4.552 9.603C2.038 9.603 0 7.566 0 5.052C0 2.538 2.038 0.5 4.552 0.5C7.066 0.5 9.103 2.538 9.103 5.052C9.103 6.129 8.73 7.118 8.104 7.898L11.354 11.147L10.646 11.854L7.397 8.605Z" fill="black" fill-opacity="0.81"/>
</svg>